# Blender 3.4.1
# www.blender.org
o Text
v 0.429526 -0.050000 0.260806
v 0.121348 -0.050000 0.260806
v 0.369598 -0.050000 -0.023983
v 0.371710 -0.050000 -0.183722
v 0.303084 -0.050000 -0.295354
v 0.145322 -0.050000 -0.335435
v 0.011526 -0.050000 -0.272194
v 0.011526 -0.050000 -0.149194
v 0.116045 -0.050000 -0.232898
v 0.165526 -0.050000 -0.241194
v 0.238035 -0.050000 -0.215832
v 0.273667 -0.050000 -0.164835
v 0.266193 -0.050000 -0.028189
v -0.002474 -0.050000 0.261314
v -0.002474 -0.050000 0.353806
v 0.429526 -0.050000 0.353806
v -0.138474 -0.050000 -0.337194
v -0.180474 -0.050000 -0.337194
v -0.525474 -0.050000 0.084806
v -0.525474 -0.050000 0.129806
v -0.236474 -0.050000 0.129806
v -0.236474 -0.050000 0.353806
v -0.138474 -0.050000 0.353806
v -0.138474 -0.050000 0.129806
v -0.065474 -0.050000 0.129806
v -0.065474 -0.050000 0.041806
v -0.138474 -0.050000 0.041806
v -0.227528 -0.050000 -0.152194
v -0.236474 -0.050000 0.041806
v -0.394474 -0.050000 0.041806
v 0.429526 0.050000 0.260806
v 0.121348 0.050000 0.260806
v 0.369598 0.050000 -0.023983
v 0.371710 0.050000 -0.183722
v 0.303084 0.050000 -0.295354
v 0.145322 0.050000 -0.335435
v 0.011526 0.050000 -0.272194
v 0.011526 0.050000 -0.149194
v 0.116045 0.050000 -0.232898
v 0.165526 0.050000 -0.241194
v 0.238035 0.050000 -0.215832
v 0.273667 0.050000 -0.164835
v 0.266193 0.050000 -0.028189
v -0.002474 0.050000 0.261314
v -0.002474 0.050000 0.353806
v 0.429526 0.050000 0.353806
v -0.138474 0.050000 -0.337194
v -0.180474 0.050000 -0.337194
v -0.525474 0.050000 0.084806
v -0.525474 0.050000 0.129806
v -0.236474 0.050000 0.129806
v -0.236474 0.050000 0.353806
v -0.138474 0.050000 0.353806
v -0.138474 0.050000 0.129806
v -0.065474 0.050000 0.129806
v -0.065474 0.050000 0.041806
v -0.138474 0.050000 0.041806
v -0.227528 0.050000 -0.152194
v -0.236474 0.050000 0.041806
v -0.394474 0.050000 0.041806
vn -0.0000 -1.0000 -0.0000
vn -0.0000 -0.0000 -1.0000
vn -0.0000 -0.0000 1.0000
vn -0.0000 1.0000 -0.0000
vn -1.0000 -0.0000 -0.0000
vn 1.0000 -0.0000 -0.0000
vn -0.7330 -0.0000 -0.6802
vn 0.2462 -0.0000 -0.9692
vn -0.4273 -0.0000 -0.9041
vn -0.9989 -0.0000 -0.0461
vn -0.7742 -0.0000 -0.6329
vn 0.6251 -0.0000 0.7805
vn 0.1654 -0.0000 0.9862
vn -0.3302 -0.0000 0.9439
vn 0.8519 -0.0000 -0.5237
vn 0.7580 -0.0000 0.6523
vn -0.8197 -0.0000 0.5728
vn 0.9999 -0.0000 0.0132
vn -0.9985 -0.0000 -0.0546
vn 0.7538 -0.0000 0.6571
vt 0.000000 0.000000
vt 0.011364 0.000000
vt 0.125000 0.000000
vt 0.170455 0.000000
vt 0.227273 0.000000
vt 0.306818 0.000000
vt 0.420455 0.000000
vt 0.431818 0.000000
vt 0.522727 0.000000
vt 0.568182 0.000000
vt 0.625000 0.000000
vt 0.670455 0.000000
vt 0.784091 0.000000
vt 0.977273 0.000000
vt 0.988636 0.000000
vt 1.000000 0.000000
vt 0.000000 0.000000
vt 0.071429 0.000000
vt 0.142857 0.000000
vt 0.214286 0.000000
vt 0.285714 0.000000
vt 0.357143 0.000000
vt 0.428571 0.000000
vt 0.500000 0.000000
vt 0.571429 0.000000
vt 0.642857 0.000000
vt 0.714286 0.000000
vt 0.857143 0.000000
vt 0.785714 0.000000
vt 0.928571 0.000000
vt 1.000000 0.000000
vt 0.000000 0.000000
vt 0.011364 0.000000
vt 0.125000 0.000000
vt 0.170455 0.000000
vt 0.227273 0.000000
vt 0.306818 0.000000
vt 0.420455 0.000000
vt 0.431818 0.000000
vt 0.522727 0.000000
vt 0.568182 0.000000
vt 0.625000 0.000000
vt 0.670455 0.000000
vt 0.784091 0.000000
vt 0.977273 0.000000
vt 0.988636 0.000000
vt 1.000000 0.000000
vt 0.000000 0.000000
vt 0.071429 0.000000
vt 0.142857 0.000000
vt 0.214286 0.000000
vt 0.285714 0.000000
vt 0.357143 0.000000
vt 0.428571 0.000000
vt 0.500000 0.000000
vt 0.571429 0.000000
vt 0.642857 0.000000
vt 0.714286 0.000000
vt 0.857143 0.000000
vt 0.785714 0.000000
vt 0.928571 0.000000
vt 1.000000 0.000000
s 0
f 13/13/1 3/3/1 2/2/1
f 28/28/1 18/18/1 17/17/1
f 30/31/1 19/19/1 28/29/1
f 21/21/2 20/20/2 25/25/2
f 24/24/3 21/21/3 25/25/3
f 23/23/1 22/22/1 21/21/1
f 5/5/1 10/10/1 6/6/1
f 6/6/1 9/9/1 7/7/1
f 10/10/1 9/9/1 6/6/1
f 7/7/1 9/9/1 8/8/1
f 3/3/1 12/12/1 4/4/1
f 4/4/1 12/12/1 5/5/1
f 16/16/1 2/2/1 1/1/1
f 5/5/1 11/11/1 10/10/1
f 15/15/1 2/2/1 16/16/1
f 13/13/1 2/2/1 14/14/1
f 14/14/1 2/2/1 15/15/1
f 5/5/1 12/12/1 11/11/1
f 12/12/1 3/3/1 13/13/1
f 18/18/1 28/29/1 19/19/1
f 19/19/1 30/31/1 20/20/1
f 20/20/1 29/30/1 25/25/1
f 25/25/1 27/27/1 26/26/1
f 27/27/1 28/28/1 17/17/1
f 27/27/1 29/30/1 28/28/1
f 20/20/1 30/31/1 29/30/1
f 25/25/1 29/30/1 27/27/1
f 23/23/1 21/21/1 24/24/1
f 43/44/4 32/33/4 33/34/4
f 58/59/4 47/48/4 48/49/4
f 60/62/4 58/60/4 49/50/4
f 51/52/2 55/56/2 50/51/2
f 54/55/3 55/56/3 51/52/3
f 53/54/4 51/52/4 52/53/4
f 35/36/4 36/37/4 40/41/4
f 36/37/4 37/38/4 39/40/4
f 40/41/4 36/37/4 39/40/4
f 37/38/4 38/39/4 39/40/4
f 33/34/4 34/35/4 42/43/4
f 34/35/4 35/36/4 42/43/4
f 46/47/4 31/32/4 32/33/4
f 35/36/4 40/41/4 41/42/4
f 45/46/4 46/47/4 32/33/4
f 43/44/4 44/45/4 32/33/4
f 44/45/4 45/46/4 32/33/4
f 35/36/4 41/42/4 42/43/4
f 42/43/4 43/44/4 33/34/4
f 48/49/4 49/50/4 58/60/4
f 49/50/4 50/51/4 60/62/4
f 50/51/4 55/56/4 59/61/4
f 55/56/4 56/57/4 57/58/4
f 57/58/4 47/48/4 58/59/4
f 57/58/4 58/59/4 59/61/4
f 50/51/4 59/61/4 60/62/4
f 55/56/4 57/58/4 59/61/4
f 53/54/4 54/55/4 51/52/4
f 20/20/5 49/50/5 19/19/5
f 2/2/2 31/32/2 1/1/2
f 1/1/6 46/47/6 16/16/6
f 21/21/3 50/51/3 20/20/3
f 14/14/7 43/44/7 13/13/7
f 6/6/8 35/36/8 5/5/8
f 15/15/5 44/45/5 14/14/5
f 7/7/9 36/37/9 6/6/9
f 22/22/5 51/52/5 21/21/5
f 29/30/10 58/59/10 28/28/10
f 16/16/3 45/46/3 15/15/3
f 8/8/5 37/38/5 7/7/5
f 19/19/11 48/49/11 18/18/11
f 9/9/12 38/39/12 8/8/12
f 25/25/3 54/55/3 24/24/3
f 18/18/2 47/48/2 17/17/2
f 10/10/13 39/40/13 9/9/13
f 23/23/3 52/53/3 22/22/3
f 11/11/14 40/41/14 10/10/14
f 24/24/6 53/54/6 23/23/6
f 17/17/6 57/58/6 27/27/6
f 5/5/15 34/35/15 4/4/15
f 28/29/16 60/62/16 30/31/16
f 12/12/17 41/42/17 11/11/17
f 30/31/2 59/61/2 29/30/2
f 4/4/18 33/34/18 3/3/18
f 27/27/2 56/57/2 26/26/2
f 13/13/19 42/43/19 12/12/19
f 26/26/6 55/56/6 25/25/6
f 3/3/20 32/33/20 2/2/20
f 20/20/5 50/51/5 49/50/5
f 2/2/2 32/33/2 31/32/2
f 1/1/6 31/32/6 46/47/6
f 21/21/3 51/52/3 50/51/3
f 14/14/7 44/45/7 43/44/7
f 6/6/8 36/37/8 35/36/8
f 15/15/5 45/46/5 44/45/5
f 7/7/9 37/38/9 36/37/9
f 22/22/5 52/53/5 51/52/5
f 29/30/10 59/61/10 58/59/10
f 16/16/3 46/47/3 45/46/3
f 8/8/5 38/39/5 37/38/5
f 19/19/11 49/50/11 48/49/11
f 9/9/12 39/40/12 38/39/12
f 25/25/3 55/56/3 54/55/3
f 18/18/2 48/49/2 47/48/2
f 10/10/13 40/41/13 39/40/13
f 23/23/3 53/54/3 52/53/3
f 11/11/14 41/42/14 40/41/14
f 24/24/6 54/55/6 53/54/6
f 17/17/6 47/48/6 57/58/6
f 5/5/15 35/36/15 34/35/15
f 28/29/16 58/60/16 60/62/16
f 12/12/17 42/43/17 41/42/17
f 30/31/2 60/62/2 59/61/2
f 4/4/18 34/35/18 33/34/18
f 27/27/2 57/58/2 56/57/2
f 13/13/19 43/44/19 42/43/19
f 26/26/6 56/57/6 55/56/6
f 3/3/20 33/34/20 32/33/20
