# Blender 3.4.1
# www.blender.org
o Cube
v -0.008691 -1.994653 3.528626
v 0.000000 0.000000 2.239046
v -1.222257 0.017392 4.239142
v 1.222257 -0.017392 4.239142
v 0.008691 1.994653 3.528626
vn -0.8110 -0.3151 -0.4929
vn -0.8061 0.3238 -0.4954
vn 0.8110 0.3151 -0.4929
vn 0.8061 -0.3238 -0.4954
vn 0.0048 0.3355 0.9420
vn -0.0048 -0.3355 0.9420
vt 0.375000 1.000000
vt 0.625000 0.000000
vt 0.375000 0.250000
vt 0.375000 0.750000
vt 0.625000 0.250000
vt 0.625000 0.750000
vt 0.375000 0.500000
vt 0.625000 0.500000
s 0
f 1/2/1 3/5/1 2/3/1
f 2/3/2 3/5/2 5/7/2
f 5/8/3 4/6/3 2/4/3
f 2/4/4 4/6/4 1/1/4
f 5/8/5 3/5/5 4/6/5
f 4/6/6 3/5/6 1/2/6
